<svg xmlns="http://www.w3.org/2000/svg" xmlns:osb="http://www.openswatchbook.org/uri/2009/osb" xmlns:svg="http://www.w3.org/2000/svg" xmlns:xlink="http://www.w3.org/1999/xlink" id="svg155" width="450" height="450" version="1.1" viewBox="0 0 450 450"><metadata id="metadata159"/><title id="title2">winner</title><desc id="desc4">Created with Sketch.</desc><defs id="defs86"><pattern id="pattern1792" patternTransform="matrix(8.660254,-5,5,8.660254,-39.959813,420.15207)" xlink:href="#pattern1784"/><pattern id="pattern1784" patternTransform="matrix(8.660254,-5,5,8.660254,-39.959813,422.15207)" xlink:href="#pattern1771"/><pattern id="pattern1771" patternTransform="matrix(0,-10,10,0,481.15421,1053.7778)" xlink:href="#pattern1761"/><pattern id="pattern1761" patternTransform="matrix(-10,0,0,-10,1534.932,572.62358)" xlink:href="#pattern1751"/><pattern id="pattern1751" patternTransform="matrix(0,10,-10,0,1053.7778,-481.15422)" xlink:href="#Strips1_1"/><pattern id="pattern2670" patternTransform="translate(174.22336,109.50366)" xlink:href="#pattern2657"/><linearGradient id="linearGradient2434" osb:paint="solid"><stop style="stop-color:#ee0707;stop-opacity:1" id="stop2432" offset="0"/></linearGradient><pattern id="pattern2428" patternTransform="matrix(10,0,0,10,-102.9661,184.00424)" xlink:href="#Strips1_1"/><pattern id="Strips1_1" width="2" height="1" patternTransform="translate(0,0) scale(10,10)" patternUnits="userSpaceOnUse"><rect id="rect1684" width="1" height="2" x="0" y="-.5" style="fill:#000;stroke:none"/></pattern><path id="path-1" d="M270.601336,44.2736333 C256.071669,40.8616873 240.381208,39 224.014381,39 C174.348546,39 130.910988,56.1432534 107.238307,81.727378 L107.306212,170.922121 C113.504361,178.741637 119.117375,184.846666 124.145254,189.237207 C128.607985,193.134238 134.232327,197.348439 144.169265,202.511604 L270.601336,44.2736333 Z"/><filter id="filter-2" width="130.6%" height="130.6%" x="-17.1%" y="-12.2%" filterUnits="objectBoundingBox"><feOffset id="feOffset7" dx="-3" dy="5" in="SourceAlpha" result="shadowOffsetOuter1"/><feGaussianBlur id="feGaussianBlur9" in="shadowOffsetOuter1" result="shadowBlurOuter1" stdDeviation="7.5"/><feColorMatrix id="feColorMatrix11" in="shadowBlurOuter1" type="matrix" values="0 0 0 0 0.215686275 0 0 0 0 0.419607843 0 0 0 0 0.705882353 0 0 0 0.55 0"/></filter><path id="path-3" d="M144.169265,202.511604 C166.197128,212.333998 194.977128,214.00168 223.841755,214.00168 C259,214.00168 287.941834,210.429799 307.621376,201.458017 C320.74107,195.476829 331.207657,185.915038 339.021135,172.772644 L339.755011,80.0308679 C323.808428,63.5657165 299.157559,50.977993 270.352808,44.2249022 C251.959708,67.4400714 238.098524,84.888932 228.769255,96.5714841 C226.951905,98.8472561 225.046716,101.233025 223.053687,103.72879 C210.637474,119.276961 184.342667,152.204565 144.169265,202.511604 Z"/><filter id="filter-4" width="125.6%" height="129.5%" x="-14.3%" y="-11.8%" filterUnits="objectBoundingBox"><feOffset id="feOffset15" dx="-3" dy="5" in="SourceAlpha" result="shadowOffsetOuter1"/><feGaussianBlur id="feGaussianBlur17" in="shadowOffsetOuter1" result="shadowBlurOuter1" stdDeviation="7.5"/><feColorMatrix id="feColorMatrix19" in="shadowBlurOuter1" type="matrix" values="0 0 0 0 0.149019608 0 0 0 0 0.239215686 0 0 0 0 0.435294118 0 0 0 1 0"/></filter><path id="path-5" d="M341.759465,179 C368.327333,179 390.868597,155.034168 390.868597,125.491583 C390.868597,95.9489974 369.331085,72 342.763218,72 L341.759465,179 Z"/><filter id="filter-6" width="191.6%" height="142.1%" x="-58%" y="-19.2%" filterUnits="objectBoundingBox"><feOffset id="feOffset23" dx="-6" dy="2" in="SourceAlpha" result="shadowOffsetOuter1"/><feGaussianBlur id="feGaussianBlur25" in="shadowOffsetOuter1" result="shadowBlurOuter1" stdDeviation="6.5"/><feColorMatrix id="feColorMatrix27" in="shadowBlurOuter1" type="matrix" values="0 0 0 0 0 0 0 0 0 0 0 0 0 0 0 0 0 0 0.450229458 0"/></filter><path id="path-7" d="M56.1247216,179 C82.6934312,179 104.231626,155.047234 104.231626,125.5 C104.231626,95.9527659 82.6934312,72 56.1247216,72"/><filter id="filter-8" width="168.6%" height="130.8%" x="-46.8%" y="-13.6%" filterUnits="objectBoundingBox"><feOffset id="feOffset31" dx="-6" dy="2" in="SourceAlpha" result="shadowOffsetOuter1"/><feGaussianBlur id="feGaussianBlur33" in="shadowOffsetOuter1" result="shadowBlurOuter1" stdDeviation="4.5"/><feColorMatrix id="feColorMatrix35" in="shadowBlurOuter1" type="matrix" values="0 0 0 0 0 0 0 0 0 0 0 0 0 0 0 0 0 0 0.5 0"/></filter><polygon id="path-9" points="359.8 383.178 359.8 247 220.49 293.626 220.49 429"/><filter id="filter-10" width="130.1%" height="122.7%" x="-15.1%" y="-8%" filterUnits="objectBoundingBox"><feMorphology id="feMorphology39" in="SourceAlpha" operator="erode" radius=".5" result="shadowSpreadOuter1"/><feOffset id="feOffset41" dx="0" dy="6" in="shadowSpreadOuter1" result="shadowOffsetOuter1"/><feGaussianBlur id="feGaussianBlur43" in="shadowOffsetOuter1" result="shadowBlurOuter1" stdDeviation="6.5"/><feColorMatrix id="feColorMatrix45" in="shadowBlurOuter1" type="matrix" values="0 0 0 0 0 0 0 0 0 0 0 0 0 0 0 0 0 0 0.507839816 0"/></filter><polygon id="path-11" points="84.086 383.075 83.185 247 220.809 293.587 220.809 429"/><filter id="filter-12" width="130.5%" height="122.6%" x="-15.3%" y="-8%" filterUnits="objectBoundingBox"><feMorphology id="feMorphology49" in="SourceAlpha" operator="erode" radius=".5" result="shadowSpreadOuter1"/><feOffset id="feOffset51" dx="0" dy="6" in="shadowSpreadOuter1" result="shadowOffsetOuter1"/><feGaussianBlur id="feGaussianBlur53" in="shadowOffsetOuter1" result="shadowBlurOuter1" stdDeviation="6.5"/><feColorMatrix id="feColorMatrix55" in="shadowBlurOuter1" type="matrix" values="0 0 0 0 0 0 0 0 0 0 0 0 0 0 0 0 0 0 0.507839816 0"/></filter><polygon id="path-13" points="83.185 247.166 220.232 200 359.8 247 220.49 294"/><filter id="filter-14" width="102.2%" height="114.5%" x="-1.1%" y="-5.1%" filterUnits="objectBoundingBox"><feMorphology id="feMorphology59" in="SourceAlpha" operator="erode" radius="1.5" result="shadowSpreadOuter1"/><feOffset id="feOffset61" dx="0" dy="2" in="shadowSpreadOuter1" result="shadowOffsetOuter1"/><feGaussianBlur id="feGaussianBlur63" in="shadowOffsetOuter1" result="shadowBlurOuter1" stdDeviation="3.5"/><feColorMatrix id="feColorMatrix65" in="shadowBlurOuter1" type="matrix" values="0 0 0 0 0 0 0 0 0 0 0 0 0 0 0 0 0 0 0.5 0"/></filter><path id="path-15" d="M81.2039288,296.341468 L83.366162,296.258477 C83.5749535,296.250464 83.750709,296.413226 83.7587227,296.622018 C83.7623896,296.717555 83.7297491,296.810938 83.6673649,296.883388 C83.4388341,297.148794 83.4687269,297.549208 83.7341325,297.777739 C83.7838146,297.820519 83.8398299,297.855335 83.9001821,297.880948 L112.562305,310.044721 C116.625977,311.769282 119.265033,315.756131 119.265033,320.170601 L119.265033,342.745991 C119.265033,348.821123 114.340166,353.745991 108.265033,353.745991 C107.324014,353.745991 106.386885,353.62524 105.476602,353.386698 L84.3324344,347.845802 C82.6619743,347.408052 81.1504744,346.504215 79.9743503,345.239781 C78.8170503,343.995584 78.1737194,342.359366 78.1737194,340.66014 L78.1737194,299.490213 C78.1737194,297.796951 79.5119129,296.40641 81.2039288,296.341468 Z"/><filter id="filter-16" width="192.5%" height="157.2%" x="-41.4%" y="-23.1%" filterUnits="objectBoundingBox"><feMorphology id="feMorphology69" in="SourceAlpha" operator="dilate" radius="1" result="shadowSpreadOuter1"/><feOffset id="feOffset71" dx="2" dy="5" in="shadowSpreadOuter1" result="shadowOffsetOuter1"/><feGaussianBlur id="feGaussianBlur73" in="shadowOffsetOuter1" result="shadowBlurOuter1" stdDeviation="4.5"/><feColorMatrix id="feColorMatrix75" in="shadowBlurOuter1" type="matrix" values="0 0 0 0 0 0 0 0 0 0 0 0 0 0 0 0 0 0 0.5 0"/></filter><path id="path-17" d="M328.452927,295.728886 L330.274167,295.373121 C330.76056,295.278107 331.231883,295.595383 331.326897,296.081777 C331.367852,296.291438 331.332667,296.508832 331.227667,296.694871 C330.762288,297.519428 331.053459,298.565129 331.878017,299.030509 C331.940984,299.066048 332.006138,299.097567 332.073086,299.124879 L341.997418,303.173573 L341.997418,303.173573 L358.967978,310.096821 C363.107303,311.785485 365.812918,315.811357 365.812918,320.281882 L365.812918,341.274523 L365.812918,341.274523 L365.812918,342.745991 C365.812918,348.821123 360.88805,353.745991 354.812918,353.745991 C353.871899,353.745991 352.934769,353.62524 352.024487,353.386698 L330.880319,347.845802 C329.209859,347.408052 327.698359,346.504215 326.522235,345.239781 C325.364935,343.995584 324.721604,342.359366 324.721604,340.66014 L324.721604,300.259621 C324.721604,298.051304 326.285574,296.152263 328.452927,295.728886 Z"/><filter id="filter-18" width="160.8%" height="134.5%" x="-35.3%" y="-13.1%" filterUnits="objectBoundingBox"><feOffset id="feOffset79" dx="-2" dy="4" in="SourceAlpha" result="shadowOffsetOuter1"/><feGaussianBlur id="feGaussianBlur81" in="shadowOffsetOuter1" result="shadowBlurOuter1" stdDeviation="3.5"/><feColorMatrix id="feColorMatrix83" in="shadowBlurOuter1" type="matrix" values="0 0 0 0 0 0 0 0 0 0 0 0 0 0 0 0 0 0 0.5 0"/></filter><pattern id="Strips1_1-7" width="2" height="1" patternTransform="translate(0,0) scale(10,10)" patternUnits="userSpaceOnUse"><rect id="rect1684-7" width="1" height="2" x="0" y="-.5" style="fill:#000;stroke:none"/></pattern><pattern id="pattern2657" width="276.615" height="229" patternTransform="translate(82.866273,200.03984)" patternUnits="userSpaceOnUse"><use style="fill:url(#Strips1_1-7);fill-opacity:1;fill-rule:evenodd;stroke:none;stroke-width:1" id="use118-1" width="100%" height="100%" x="0" y="0" transform="translate(-83.184855,-200)" xlink:href="#path-9"/><use style="fill:url(#Strips1_1-7);fill-opacity:1;fill-rule:evenodd;stroke:none;stroke-width:1" id="use123-1" width="100%" height="100%" x="0" y="0" transform="translate(-83.184855,-200)" xlink:href="#path-11"/><use style="fill:url(#Strips1_1-7);fill-opacity:1;fill-rule:evenodd;stroke:none;stroke-width:1" id="use128-5" width="100%" height="100%" x="0" y="0" transform="translate(-83.184855,-200)" xlink:href="#path-13"/></pattern></defs><ellipse style="fill:none;fill-rule:evenodd;stroke:#000;stroke-width:9;stroke-opacity:1" id="Oval" cx="360.301" cy="41.5" rx="13.53" ry="13.5"/><ellipse style="fill:none;fill-rule:evenodd;stroke:#080808;stroke-width:9;stroke-opacity:1" id="Oval-Copy-2" cx="87.695" cy="42.5" rx="13.53" ry="13.5"/><rect style="fill:#000102;fill-rule:evenodd;stroke:none;stroke-width:1;fill-opacity:1" id="Rectangle" width="9.02" height="29" x="355.791" y="59"/><rect style="fill:#000;fill-rule:evenodd;stroke:none;stroke-width:1;fill-opacity:1" id="Rectangle-Copy-82" width="9.02" height="29" x="83.185" y="60"/><use id="use92" width="100%" height="100%" x="0" y="0" xlink:href="#path-1" style="fill:#000;fill-opacity:1;fill-rule:evenodd;stroke:none;stroke-width:1;filter:url(#filter-2)"/><use id="use94" width="100%" height="100%" x="0" y="0" xlink:href="#path-1" style="fill:#fff200;fill-rule:evenodd;stroke:none;stroke-width:1;fill-opacity:1"/><use id="use97" width="100%" height="100%" x="0" y="0" xlink:href="#path-3" style="fill:#000;fill-opacity:1;fill-rule:evenodd;stroke:none;stroke-width:1;filter:url(#filter-4)"/><use id="use103" width="100%" height="100%" x="0" y="0" xlink:href="#path-5" style="fill:#000;fill-opacity:1;fill-rule:evenodd;stroke:none;stroke-width:1;filter:url(#filter-6)"/><use id="use105" width="100%" height="100%" x="0" y="0" xlink:href="#path-5" style="fill:#000;fill-rule:evenodd;stroke:none;stroke-width:1;fill-opacity:1"/><use id="use109" width="100%" height="100%" x="0" y="0" transform="matrix(-1,0,0,1,160.35635,0)" xlink:href="#path-7" style="fill:#000;fill-opacity:1;fill-rule:evenodd;stroke:none;stroke-width:1;filter:url(#filter-8)"/><use id="use111" width="100%" height="100%" x="0" y="0" transform="matrix(-1,0,0,1,160.35635,0)" xlink:href="#path-7" style="fill:#000;fill-rule:evenodd;stroke:none;stroke-width:1;fill-opacity:1"/><path style="fill:#fff200;fill-rule:evenodd;stroke:none;stroke-width:1;fill-opacity:1" id="Path-Copy" d="m 190.02312,100.5 c 0.0108,9.9545 -7.77208,20.2558 -18.14724,20.2558 -10.37517,1e-5 -21.69578,-10.3013 -21.70662,-20.2558 -0.0108,-9.954492 4.4136,-20.879973 17.60115,-19.499997 13.18754,1.379982 22.24188,9.545504 22.25271,19.499997 z"/><path style="fill:#284074;fill-rule:evenodd;stroke:none;stroke-width:1" id="Path-Copy-3" d="m 295.12194,88.5094 c 8.10268,6.565205 1.40882,19.15918 -1.17716,22.9346 -2.58599,3.77543 -9.96736,9.88143 -20.33874,6.50166 -10.37138,-3.37976 -9.64701,-4.0394 -11.62642,-12.03795 -1.3196,-5.33237 -0.85145,-11.131805 1.40448,-17.398305 2.80321,-4.2171 7.20896,-6.325636 13.21724,-6.325641 9.01241,-10e-7 10.41791,-0.239569 18.5206,6.325636 z"/><use id="use116" width="100%" height="100%" x="0" y="0" xlink:href="#path-9" style="fill:#000;fill-opacity:1;fill-rule:evenodd;stroke:none;stroke-width:1;filter:url(#filter-10)"/><use id="use118" width="100%" height="100%" x="0" y="0" xlink:href="#path-9" style="fill:#fff200;fill-rule:evenodd;stroke:none;stroke-width:1;fill-opacity:1"/><use id="use121" width="100%" height="100%" x="0" y="0" xlink:href="#path-11" style="fill:#000;fill-opacity:1;fill-rule:evenodd;stroke:none;stroke-width:1;filter:url(#filter-12)"/><use id="use123" width="100%" height="100%" x="0" y="0" xlink:href="#path-11" style="fill:#fff200;fill-rule:evenodd;stroke:none;stroke-width:1;fill-opacity:1"/><use id="use126" width="100%" height="100%" x="0" y="0" xlink:href="#path-13" style="fill:#000;fill-opacity:1;fill-rule:evenodd;stroke:none;stroke-width:1;filter:url(#filter-14)"/><use id="use99" width="100%" height="100%" x="0" y="0" xlink:href="#path-3" style="fill:#000;fill-rule:evenodd;stroke:none;stroke-width:1;fill-opacity:1"/><use id="use128" width="100%" height="100%" x="0" y="0" xlink:href="#path-13" style="fill:#fff200;fill-rule:evenodd;stroke:none;stroke-width:1;fill-opacity:1"/><path style="fill:#fff200;fill-rule:evenodd;stroke:none;stroke-width:1;fill-opacity:1" id="path131" d="m 182.37283,155 h 117.32428 c 7.73198,0 14,6.26801 14,14 v 4 c 0,7.73199 -6.26802,14 -14,14 H 156.94557"/><path style="fill:#151516;fill-rule:evenodd;stroke:none;stroke-width:1;fill-opacity:1" id="path133" d="m 156.75517,187 h -5.45005 c -7.73198,0 -14,-6.26801 -14,-14 v -4 c 0,-7.73199 6.26802,-14 14,-14 h 30.85393 z"/><path style="fill:#284074;fill-rule:evenodd;stroke:none;stroke-width:1" id="path135" d="m 186.45062,164 h 111.6806 c 3.887,0 7.03804,3.35786 7.03804,7.5 0,4.14214 -3.15104,7.5 -7.03804,7.5 H 177.16926 Z"/><path style="fill:#fffffd;fill-rule:evenodd;stroke:none;stroke-width:1;fill-opacity:1" id="path137" d="M 299.95017,179 H 152.37851 c -3.98156,0 -7.20925,-3.35786 -7.20925,-7.5 0,-4.14214 3.22769,-7.5 7.20925,-7.5 h 147.57166 c 3.4794,1.21444 5.21909,3.71444 5.21909,7.5 0,3.78556 -1.73969,6.28556 -5.21909,7.5 z"/><use id="use139" width="100%" height="100%" x="0" y="0" xlink:href="#path-15" style="fill:#000;fill-opacity:1;fill-rule:evenodd;stroke:none;stroke-width:1;filter:url(#filter-16)"/><use id="use145" width="100%" height="100%" x="0" y="0" transform="matrix(-1,0,0,1,690.53452,0)" xlink:href="#path-17" style="fill:#000;fill-opacity:1;fill-rule:evenodd;stroke:none;stroke-width:1;filter:url(#filter-18)"/><path style="fill:#386cb5;fill-rule:evenodd;stroke:none;stroke-width:1" id="Path-2" d="m 359.79956,293 c 0,2.62659 0,4.04524 0,4.25595 0,0.31607 -0.20793,1.15284 -0.36143,1.40805 -0.15349,0.25522 -1.70991,0.60738 -2.26983,0 -0.37328,-0.40491 -0.4682,-1.62877 -0.28475,-3.67157 z"/><path style="fill:#fff200;fill-rule:evenodd;stroke:#fff200;stroke-width:6;fill-opacity:1;stroke-opacity:1" id="Combined-Shape" d="m 280,77 c 13.25483,0 24,10.745166 24,24 0,13.25483 -10.74517,24 -24,24 -13.25483,0 -24,-10.74517 -24,-24 0,-13.254834 10.74517,-24 24,-24 z m -0.5,3 c -11.32184,0 -20.5,9.178163 -20.5,20.5 0,11.32184 9.17816,20.5 20.5,20.5 11.32184,0 20.5,-9.17816 20.5,-20.5 C 300,89.178163 290.82184,80 279.5,80 Z"/><path style="fill:#020202;fill-rule:evenodd;stroke:#000;stroke-width:6;fill-opacity:1;stroke-opacity:1" id="Combined-Shape-Copy" d="m 171,77 c 13.25483,0 24,10.745166 24,24 0,13.25483 -10.74517,24 -24,24 -13.25483,0 -24,-10.74517 -24,-24 0,-13.254834 10.74517,-24 24,-24 z m -0.5,4 c -11.32184,0 -20.5,9.178163 -20.5,20.5 0,11.32184 9.17816,20.5 20.5,20.5 11.32184,0 20.5,-9.17816 20.5,-20.5 C 191,90.178163 181.82184,81 170.5,81 Z"/><g id="g2689" transform="translate(-546.29238,28.601691)" style="fill:url(#pattern1771);fill-opacity:1"><g id="g10382" style="fill:url(#pattern1771)"><g id="g1776" transform="translate(-0.29994684,-0.0149013)" style="fill:url(#pattern1792)"><use id="use2672" width="100%" height="100%" x="0" y="0" transform="translate(545.9738,-28.188218)" xlink:href="#path-9" style="fill:url(#pattern1792);fill-opacity:1;fill-rule:evenodd;stroke:none;stroke-width:1"/><use id="use2674" width="100%" height="100%" x="0" y="0" transform="translate(545.9738,-28.188218)" xlink:href="#path-11" style="fill:url(#pattern1792);fill-opacity:1;fill-rule:evenodd;stroke:none;stroke-width:1"/><use id="use2676" width="100%" height="100%" x="0" y="0" transform="translate(545.9738,-28.188218)" xlink:href="#path-13" style="fill:url(#pattern1792);fill-opacity:1;fill-rule:evenodd;stroke:none;stroke-width:1"/></g></g></g><use id="use147" width="100%" height="100%" x="0" y="0" transform="matrix(-1,0,0,1,690.53452,0)" xlink:href="#path-17" style="fill:#000;fill-rule:evenodd;stroke:none;stroke-width:1;fill-opacity:1"/><use id="use141" width="100%" height="100%" x="0" y="0" xlink:href="#path-15" style="fill:#000;fill-rule:evenodd;stroke:none;stroke-width:1;fill-opacity:1"/></svg>