<svg xmlns="http://www.w3.org/2000/svg" xmlns:svg="http://www.w3.org/2000/svg" xmlns:xlink="http://www.w3.org/1999/xlink" id="svg2594" width="1000" height="1000" version="1.1" viewBox="0 0 1000 1000"><metadata id="metadata2600"/><defs id="defs2598"><pattern id="pattern3342" patternTransform="matrix(0,-10,10,0,481.15421,1053.7778)" xlink:href="#pattern2522"/><pattern id="pattern3340" patternTransform="matrix(0,-10,10,0,481.15421,1053.7778)" xlink:href="#pattern2522"/><pattern id="pattern3338" patternTransform="matrix(0,-10,10,0,481.15421,1053.7778)" xlink:href="#pattern2522"/><pattern id="pattern3336" patternTransform="matrix(0,-10,10,0,481.15421,1053.7778)" xlink:href="#pattern2522"/><pattern id="pattern3334" patternTransform="matrix(0,-10,10,0,481.15421,1053.7778)" xlink:href="#pattern2522"/><filter id="filter-2" width="1.306" height="1.306" x="-.171" y="-.122" filterUnits="objectBoundingBox"><feOffset id="feOffset7" dx="-3" dy="5" in="SourceAlpha" result="shadowOffsetOuter1"/><feGaussianBlur id="feGaussianBlur9" in="shadowOffsetOuter1" result="shadowBlurOuter1" stdDeviation="7.5"/><feColorMatrix id="feColorMatrix11" in="shadowBlurOuter1" type="matrix" values="0 0 0 0 0.215686275 0 0 0 0 0.419607843 0 0 0 0 0.705882353 0 0 0 0.55 0"/></filter><filter id="filter-4" width="1.256" height="1.295" x="-.143" y="-.118" filterUnits="objectBoundingBox"><feOffset id="feOffset15" dx="-3" dy="5" in="SourceAlpha" result="shadowOffsetOuter1"/><feGaussianBlur id="feGaussianBlur17" in="shadowOffsetOuter1" result="shadowBlurOuter1" stdDeviation="7.5"/><feColorMatrix id="feColorMatrix19" in="shadowBlurOuter1" type="matrix" values="0 0 0 0 0.149019608 0 0 0 0 0.239215686 0 0 0 0 0.435294118 0 0 0 1 0"/></filter><filter id="filter-6" width="1.916" height="1.421" x="-.58" y="-.192" filterUnits="objectBoundingBox"><feOffset id="feOffset23" dx="-6" dy="2" in="SourceAlpha" result="shadowOffsetOuter1"/><feGaussianBlur id="feGaussianBlur25" in="shadowOffsetOuter1" result="shadowBlurOuter1" stdDeviation="6.5"/><feColorMatrix id="feColorMatrix27" in="shadowBlurOuter1" type="matrix" values="0 0 0 0 0 0 0 0 0 0 0 0 0 0 0 0 0 0 0.450229458 0"/></filter><filter id="filter-8" width="1.686" height="1.308" x="-.468" y="-.136" filterUnits="objectBoundingBox"><feOffset id="feOffset31" dx="-6" dy="2" in="SourceAlpha" result="shadowOffsetOuter1"/><feGaussianBlur id="feGaussianBlur33" in="shadowOffsetOuter1" result="shadowBlurOuter1" stdDeviation="4.5"/><feColorMatrix id="feColorMatrix35" in="shadowBlurOuter1" type="matrix" values="0 0 0 0 0 0 0 0 0 0 0 0 0 0 0 0 0 0 0.5 0"/></filter><filter id="filter-10" width="1.301" height="1.227" x="-.151" y="-.08" filterUnits="objectBoundingBox"><feMorphology id="feMorphology39" in="SourceAlpha" operator="erode" radius=".5" result="shadowSpreadOuter1"/><feOffset id="feOffset41" dx="0" dy="6" in="shadowSpreadOuter1" result="shadowOffsetOuter1"/><feGaussianBlur id="feGaussianBlur43" in="shadowOffsetOuter1" result="shadowBlurOuter1" stdDeviation="6.5"/><feColorMatrix id="feColorMatrix45" in="shadowBlurOuter1" type="matrix" values="0 0 0 0 0 0 0 0 0 0 0 0 0 0 0 0 0 0 0.507839816 0"/></filter><filter id="filter-12" width="1.305" height="1.226" x="-.153" y="-.08" filterUnits="objectBoundingBox"><feMorphology id="feMorphology49" in="SourceAlpha" operator="erode" radius=".5" result="shadowSpreadOuter1"/><feOffset id="feOffset51" dx="0" dy="6" in="shadowSpreadOuter1" result="shadowOffsetOuter1"/><feGaussianBlur id="feGaussianBlur53" in="shadowOffsetOuter1" result="shadowBlurOuter1" stdDeviation="6.5"/><feColorMatrix id="feColorMatrix55" in="shadowBlurOuter1" type="matrix" values="0 0 0 0 0 0 0 0 0 0 0 0 0 0 0 0 0 0 0.507839816 0"/></filter><filter id="filter-14" width="1.022" height="1.145" x="-.011" y="-.051" filterUnits="objectBoundingBox"><feMorphology id="feMorphology59" in="SourceAlpha" operator="erode" radius="1.5" result="shadowSpreadOuter1"/><feOffset id="feOffset61" dx="0" dy="2" in="shadowSpreadOuter1" result="shadowOffsetOuter1"/><feGaussianBlur id="feGaussianBlur63" in="shadowOffsetOuter1" result="shadowBlurOuter1" stdDeviation="3.5"/><feColorMatrix id="feColorMatrix65" in="shadowBlurOuter1" type="matrix" values="0 0 0 0 0 0 0 0 0 0 0 0 0 0 0 0 0 0 0.5 0"/></filter><filter id="filter-16" width="1.925" height="1.572" x="-.414" y="-.231" filterUnits="objectBoundingBox"><feMorphology id="feMorphology69" in="SourceAlpha" operator="dilate" radius="1" result="shadowSpreadOuter1"/><feOffset id="feOffset71" dx="2" dy="5" in="shadowSpreadOuter1" result="shadowOffsetOuter1"/><feGaussianBlur id="feGaussianBlur73" in="shadowOffsetOuter1" result="shadowBlurOuter1" stdDeviation="4.5"/><feColorMatrix id="feColorMatrix75" in="shadowBlurOuter1" type="matrix" values="0 0 0 0 0 0 0 0 0 0 0 0 0 0 0 0 0 0 0.5 0"/></filter><filter id="filter-18" width="1.608" height="1.345" x="-.353" y="-.131" filterUnits="objectBoundingBox"><feOffset id="feOffset79" dx="-2" dy="4" in="SourceAlpha" result="shadowOffsetOuter1"/><feGaussianBlur id="feGaussianBlur81" in="shadowOffsetOuter1" result="shadowBlurOuter1" stdDeviation="3.5"/><feColorMatrix id="feColorMatrix83" in="shadowBlurOuter1" type="matrix" values="0 0 0 0 0 0 0 0 0 0 0 0 0 0 0 0 0 0 0.5 0"/></filter><pattern id="pattern2522" patternTransform="matrix(0,-10,10,0,526.79162,1072.8294)" xlink:href="#pattern1771"/><pattern id="pattern1771" patternTransform="matrix(0,-10,10,0,481.15421,1053.7778)" xlink:href="#pattern1761"/><pattern id="pattern1761" patternTransform="matrix(-10,0,0,-10,1534.932,572.62358)" xlink:href="#pattern1751"/><pattern id="pattern1751" patternTransform="matrix(0,10,-10,0,1053.7778,-481.15422)" xlink:href="#Strips1_1"/><pattern id="Strips1_1" width="2" height="1" patternTransform="translate(0,0) scale(10,10)" patternUnits="userSpaceOnUse"><rect style="fill:#000;stroke:none" id="rect1684" width="1" height="2" x="0" y="-.5"/></pattern><pattern id="pattern3201" patternTransform="matrix(0,-10,10,0,526.79162,1072.8294)" xlink:href="#pattern1771"/><pattern id="pattern3203" patternTransform="matrix(0,-10,10,0,481.15421,1053.7778)" xlink:href="#pattern1761"/><pattern id="pattern3205" patternTransform="matrix(-10,0,0,-10,1534.932,572.62358)" xlink:href="#pattern1751"/><pattern id="pattern3207" patternTransform="matrix(0,10,-10,0,1053.7778,-481.15422)" xlink:href="#Strips1_1"/><pattern id="pattern3213" patternTransform="matrix(0,-10,10,0,526.79162,1072.8294)" xlink:href="#pattern1771"/><pattern id="pattern3215" patternTransform="matrix(0,-10,10,0,481.15421,1053.7778)" xlink:href="#pattern1761"/><pattern id="pattern3217" patternTransform="matrix(-10,0,0,-10,1534.932,572.62358)" xlink:href="#pattern1751"/><pattern id="pattern3219" patternTransform="matrix(0,10,-10,0,1053.7778,-481.15422)" xlink:href="#Strips1_1"/><pattern id="pattern3225" patternTransform="matrix(0,-10,10,0,526.79162,1072.8294)" xlink:href="#pattern1771"/><pattern id="pattern3227" patternTransform="matrix(0,-10,10,0,481.15421,1053.7778)" xlink:href="#pattern1761"/><pattern id="pattern3229" patternTransform="matrix(-10,0,0,-10,1534.932,572.62358)" xlink:href="#pattern1751"/><pattern id="pattern3231" patternTransform="matrix(0,10,-10,0,1053.7778,-481.15422)" xlink:href="#Strips1_1"/><pattern id="pattern3237" patternTransform="matrix(0,-10,10,0,526.79162,1072.8294)" xlink:href="#pattern1771"/><pattern id="pattern3239" patternTransform="matrix(0,-10,10,0,481.15421,1053.7778)" xlink:href="#pattern1761"/><pattern id="pattern3241" patternTransform="matrix(-10,0,0,-10,1534.932,572.62358)" xlink:href="#pattern1751"/><pattern id="pattern3243" patternTransform="matrix(0,10,-10,0,1053.7778,-481.15422)" xlink:href="#Strips1_1"/><pattern id="pattern3249" patternTransform="matrix(0,-10,10,0,526.79162,1072.8294)" xlink:href="#pattern1771"/><pattern id="pattern3251" patternTransform="matrix(0,-10,10,0,481.15421,1053.7778)" xlink:href="#pattern1761"/><pattern id="pattern3253" patternTransform="matrix(-10,0,0,-10,1534.932,572.62358)" xlink:href="#pattern1751"/><pattern id="pattern3255" patternTransform="matrix(0,10,-10,0,1053.7778,-481.15422)" xlink:href="#Strips1_1"/><pattern id="pattern3261" patternTransform="matrix(0,-10,10,0,526.79162,1072.8294)" xlink:href="#pattern1771"/><pattern id="pattern3263" patternTransform="matrix(0,-10,10,0,481.15421,1053.7778)" xlink:href="#pattern1761"/><pattern id="pattern3265" patternTransform="matrix(-10,0,0,-10,1534.932,572.62358)" xlink:href="#pattern1751"/><pattern id="pattern3267" patternTransform="matrix(0,10,-10,0,1053.7778,-481.15422)" xlink:href="#Strips1_1"/><pattern id="pattern3273" patternTransform="matrix(0,-10,10,0,526.79162,1072.8294)" xlink:href="#pattern1771"/><pattern id="pattern3275" patternTransform="matrix(0,-10,10,0,481.15421,1053.7778)" xlink:href="#pattern1761"/><pattern id="pattern3277" patternTransform="matrix(-10,0,0,-10,1534.932,572.62358)" xlink:href="#pattern1751"/><pattern id="pattern3279" patternTransform="matrix(0,10,-10,0,1053.7778,-481.15422)" xlink:href="#Strips1_1"/><pattern id="pattern3285" patternTransform="matrix(0,-10,10,0,526.79162,1072.8294)" xlink:href="#pattern1771"/><pattern id="pattern3287" patternTransform="matrix(0,-10,10,0,481.15421,1053.7778)" xlink:href="#pattern1761"/><pattern id="pattern3289" patternTransform="matrix(-10,0,0,-10,1534.932,572.62358)" xlink:href="#pattern1751"/><pattern id="pattern3291" patternTransform="matrix(0,10,-10,0,1053.7778,-481.15422)" xlink:href="#Strips1_1"/><filter id="filter-2-3" width="1.306" height="1.306" x="-.171" y="-.122" filterUnits="objectBoundingBox"><feOffset id="feOffset7-0" dx="-3" dy="5" in="SourceAlpha" result="shadowOffsetOuter1"/><feGaussianBlur id="feGaussianBlur9-4" in="shadowOffsetOuter1" result="shadowBlurOuter1" stdDeviation="7.5"/><feColorMatrix id="feColorMatrix11-4" in="shadowBlurOuter1" type="matrix" values="0 0 0 0 0.215686275 0 0 0 0 0.419607843 0 0 0 0 0.705882353 0 0 0 0.55 0"/></filter><filter id="filter-4-4" width="1.256" height="1.295" x="-.143" y="-.118" filterUnits="objectBoundingBox"><feOffset id="feOffset15-4" dx="-3" dy="5" in="SourceAlpha" result="shadowOffsetOuter1"/><feGaussianBlur id="feGaussianBlur17-7" in="shadowOffsetOuter1" result="shadowBlurOuter1" stdDeviation="7.5"/><feColorMatrix id="feColorMatrix19-6" in="shadowBlurOuter1" type="matrix" values="0 0 0 0 0.149019608 0 0 0 0 0.239215686 0 0 0 0 0.435294118 0 0 0 1 0"/></filter><filter id="filter-6-3" width="1.916" height="1.421" x="-.58" y="-.192" filterUnits="objectBoundingBox"><feOffset id="feOffset23-1" dx="-6" dy="2" in="SourceAlpha" result="shadowOffsetOuter1"/><feGaussianBlur id="feGaussianBlur25-7" in="shadowOffsetOuter1" result="shadowBlurOuter1" stdDeviation="6.5"/><feColorMatrix id="feColorMatrix27-5" in="shadowBlurOuter1" type="matrix" values="0 0 0 0 0 0 0 0 0 0 0 0 0 0 0 0 0 0 0.450229458 0"/></filter><filter id="filter-8-9" width="1.686" height="1.308" x="-.468" y="-.136" filterUnits="objectBoundingBox"><feOffset id="feOffset31-6" dx="-6" dy="2" in="SourceAlpha" result="shadowOffsetOuter1"/><feGaussianBlur id="feGaussianBlur33-2" in="shadowOffsetOuter1" result="shadowBlurOuter1" stdDeviation="4.5"/><feColorMatrix id="feColorMatrix35-1" in="shadowBlurOuter1" type="matrix" values="0 0 0 0 0 0 0 0 0 0 0 0 0 0 0 0 0 0 0.5 0"/></filter><filter id="filter-10-7" width="1.301" height="1.227" x="-.151" y="-.08" filterUnits="objectBoundingBox"><feMorphology id="feMorphology39-8" in="SourceAlpha" operator="erode" radius=".5" result="shadowSpreadOuter1"/><feOffset id="feOffset41-5" dx="0" dy="6" in="shadowSpreadOuter1" result="shadowOffsetOuter1"/><feGaussianBlur id="feGaussianBlur43-7" in="shadowOffsetOuter1" result="shadowBlurOuter1" stdDeviation="6.5"/><feColorMatrix id="feColorMatrix45-4" in="shadowBlurOuter1" type="matrix" values="0 0 0 0 0 0 0 0 0 0 0 0 0 0 0 0 0 0 0.507839816 0"/></filter><filter id="filter-12-1" width="1.305" height="1.226" x="-.153" y="-.08" filterUnits="objectBoundingBox"><feMorphology id="feMorphology49-8" in="SourceAlpha" operator="erode" radius=".5" result="shadowSpreadOuter1"/><feOffset id="feOffset51-5" dx="0" dy="6" in="shadowSpreadOuter1" result="shadowOffsetOuter1"/><feGaussianBlur id="feGaussianBlur53-9" in="shadowOffsetOuter1" result="shadowBlurOuter1" stdDeviation="6.5"/><feColorMatrix id="feColorMatrix55-7" in="shadowBlurOuter1" type="matrix" values="0 0 0 0 0 0 0 0 0 0 0 0 0 0 0 0 0 0 0.507839816 0"/></filter><filter id="filter-14-5" width="1.022" height="1.145" x="-.011" y="-.051" filterUnits="objectBoundingBox"><feMorphology id="feMorphology59-3" in="SourceAlpha" operator="erode" radius="1.5" result="shadowSpreadOuter1"/><feOffset id="feOffset61-8" dx="0" dy="2" in="shadowSpreadOuter1" result="shadowOffsetOuter1"/><feGaussianBlur id="feGaussianBlur63-8" in="shadowOffsetOuter1" result="shadowBlurOuter1" stdDeviation="3.5"/><feColorMatrix id="feColorMatrix65-3" in="shadowBlurOuter1" type="matrix" values="0 0 0 0 0 0 0 0 0 0 0 0 0 0 0 0 0 0 0.5 0"/></filter><filter id="filter-16-1" width="1.925" height="1.572" x="-.414" y="-.231" filterUnits="objectBoundingBox"><feMorphology id="feMorphology69-8" in="SourceAlpha" operator="dilate" radius="1" result="shadowSpreadOuter1"/><feOffset id="feOffset71-9" dx="2" dy="5" in="shadowSpreadOuter1" result="shadowOffsetOuter1"/><feGaussianBlur id="feGaussianBlur73-6" in="shadowOffsetOuter1" result="shadowBlurOuter1" stdDeviation="4.5"/><feColorMatrix id="feColorMatrix75-4" in="shadowBlurOuter1" type="matrix" values="0 0 0 0 0 0 0 0 0 0 0 0 0 0 0 0 0 0 0.5 0"/></filter><filter id="filter-18-3" width="1.608" height="1.345" x="-.353" y="-.131" filterUnits="objectBoundingBox"><feOffset id="feOffset79-3" dx="-2" dy="4" in="SourceAlpha" result="shadowOffsetOuter1"/><feGaussianBlur id="feGaussianBlur81-3" in="shadowOffsetOuter1" result="shadowBlurOuter1" stdDeviation="3.5"/><feColorMatrix id="feColorMatrix83-8" in="shadowBlurOuter1" type="matrix" values="0 0 0 0 0 0 0 0 0 0 0 0 0 0 0 0 0 0 0.5 0"/></filter><pattern id="pattern1771-6" patternTransform="matrix(0,-10,10,0,481.15421,1053.7778)" xlink:href="#pattern1761-0"/><pattern id="pattern1761-0" patternTransform="matrix(-10,0,0,-10,1534.932,572.62358)" xlink:href="#pattern1751-4"/><pattern id="pattern1751-4" patternTransform="matrix(0,10,-10,0,1053.7778,-481.15422)" xlink:href="#Strips1_1-8"/><pattern id="Strips1_1-8" width="2" height="1" patternTransform="translate(0,0) scale(10,10)" patternUnits="userSpaceOnUse"><rect style="fill:#000;stroke:none" id="rect1684-8" width="1" height="2" x="0" y="-.5"/></pattern><pattern id="pattern4676" patternTransform="matrix(0,-10,10,0,481.15421,1053.7778)" xlink:href="#pattern1761-0"/><pattern id="pattern4678" patternTransform="matrix(-10,0,0,-10,1534.932,572.62358)" xlink:href="#pattern1751-4"/><pattern id="pattern4680" patternTransform="matrix(0,10,-10,0,1053.7778,-481.15422)" xlink:href="#Strips1_1-8"/><pattern id="pattern1792" patternTransform="matrix(8.660254,-5,5,8.660254,-39.959813,420.15207)" xlink:href="#pattern1784"/><pattern id="pattern1784" patternTransform="matrix(8.660254,-5,5,8.660254,-39.959813,422.15207)" xlink:href="#pattern1771-6"/><pattern id="pattern4688" patternTransform="matrix(0,-10,10,0,481.15421,1053.7778)" xlink:href="#pattern1761-0"/><pattern id="pattern4690" patternTransform="matrix(-10,0,0,-10,1534.932,572.62358)" xlink:href="#pattern1751-4"/><pattern id="pattern4692" patternTransform="matrix(0,10,-10,0,1053.7778,-481.15422)" xlink:href="#Strips1_1-8"/><pattern id="pattern4698" patternTransform="matrix(8.660254,-5,5,8.660254,-39.959813,420.15207)" xlink:href="#pattern1784"/><pattern id="pattern4700" patternTransform="matrix(8.660254,-5,5,8.660254,-39.959813,422.15207)" xlink:href="#pattern1771-6"/><pattern id="pattern4702" patternTransform="matrix(0,-10,10,0,481.15421,1053.7778)" xlink:href="#pattern1761-0"/><pattern id="pattern4704" patternTransform="matrix(-10,0,0,-10,1534.932,572.62358)" xlink:href="#pattern1751-4"/><pattern id="pattern4706" patternTransform="matrix(0,10,-10,0,1053.7778,-481.15422)" xlink:href="#Strips1_1-8"/><pattern id="pattern4712" patternTransform="matrix(8.660254,-5,5,8.660254,-39.959813,420.15207)" xlink:href="#pattern1784"/><pattern id="pattern4714" patternTransform="matrix(8.660254,-5,5,8.660254,-39.959813,422.15207)" xlink:href="#pattern1771-6"/><pattern id="pattern4716" patternTransform="matrix(0,-10,10,0,481.15421,1053.7778)" xlink:href="#pattern1761-0"/><pattern id="pattern4718" patternTransform="matrix(-10,0,0,-10,1534.932,572.62358)" xlink:href="#pattern1751-4"/><pattern id="pattern4720" patternTransform="matrix(0,10,-10,0,1053.7778,-481.15422)" xlink:href="#Strips1_1-8"/><pattern id="pattern4726" patternTransform="matrix(8.660254,-5,5,8.660254,-39.959813,420.15207)" xlink:href="#pattern1784"/><pattern id="pattern4728" patternTransform="matrix(8.660254,-5,5,8.660254,-39.959813,422.15207)" xlink:href="#pattern1771-6"/><pattern id="pattern4730" patternTransform="matrix(0,-10,10,0,481.15421,1053.7778)" xlink:href="#pattern1761-0"/><pattern id="pattern4732" patternTransform="matrix(-10,0,0,-10,1534.932,572.62358)" xlink:href="#pattern1751-4"/><pattern id="pattern4734" patternTransform="matrix(0,10,-10,0,1053.7778,-481.15422)" xlink:href="#Strips1_1-8"/><pattern id="pattern4740" patternTransform="matrix(8.660254,-5,5,8.660254,-39.959813,420.15207)" xlink:href="#pattern1784"/><pattern id="pattern4742" patternTransform="matrix(8.660254,-5,5,8.660254,-39.959813,422.15207)" xlink:href="#pattern1771-6"/><pattern id="pattern4744" patternTransform="matrix(0,-10,10,0,481.15421,1053.7778)" xlink:href="#pattern1761-0"/><pattern id="pattern4746" patternTransform="matrix(-10,0,0,-10,1534.932,572.62358)" xlink:href="#pattern1751-4"/><pattern id="pattern4748" patternTransform="matrix(0,10,-10,0,1053.7778,-481.15422)" xlink:href="#Strips1_1-8"/><pattern id="pattern4754" patternTransform="matrix(8.660254,-5,5,8.660254,-39.959813,420.15207)" xlink:href="#pattern1784"/><pattern id="pattern4756" patternTransform="matrix(8.660254,-5,5,8.660254,-39.959813,422.15207)" xlink:href="#pattern1771-6"/><pattern id="pattern4758" patternTransform="matrix(0,-10,10,0,481.15421,1053.7778)" xlink:href="#pattern1761-0"/><pattern id="pattern4760" patternTransform="matrix(-10,0,0,-10,1534.932,572.62358)" xlink:href="#pattern1751-4"/><pattern id="pattern4762" patternTransform="matrix(0,10,-10,0,1053.7778,-481.15422)" xlink:href="#Strips1_1-8"/><pattern id="pattern4768" patternTransform="matrix(8.660254,-5,5,8.660254,-39.959813,420.15207)" xlink:href="#pattern1784"/><pattern id="pattern4770" patternTransform="matrix(8.660254,-5,5,8.660254,-39.959813,422.15207)" xlink:href="#pattern1771-6"/><pattern id="pattern4772" patternTransform="matrix(0,-10,10,0,481.15421,1053.7778)" xlink:href="#pattern1761-0"/><pattern id="pattern4774" patternTransform="matrix(-10,0,0,-10,1534.932,572.62358)" xlink:href="#pattern1751-4"/><pattern id="pattern4776" patternTransform="matrix(0,10,-10,0,1053.7778,-481.15422)" xlink:href="#Strips1_1-8"/></defs><g id="g5223" transform="matrix(1.9916569,0,0,1.9916569,-1528.3124,-99.5699)"><g id="g5183"><ellipse id="Oval" cx="1152.202" cy="121.205" rx="13.53" ry="13.5" style="fill:none;fill-rule:evenodd;stroke:#000;stroke-width:9;stroke-opacity:1"/><ellipse id="Oval-Copy-2" cx="879.596" cy="122.205" rx="13.53" ry="13.5" style="fill:none;fill-rule:evenodd;stroke:#080808;stroke-width:9;stroke-opacity:1"/><rect id="Rectangle" width="9.02" height="29" x="1147.692" y="138.705" style="fill:#000102;fill-opacity:1;fill-rule:evenodd;stroke:none;stroke-width:1"/><rect id="Rectangle-Copy-82" width="9.02" height="29" x="875.086" y="139.705" style="fill:#000;fill-opacity:1;fill-rule:evenodd;stroke:none;stroke-width:1"/><path style="fill:#000;fill-opacity:1;fill-rule:evenodd;stroke:none;stroke-width:1;filter:url(#filter-2-3)" id="use92" d="m 1062.5025,123.97862 c -14.5296,-3.41194 -30.2201,-5.27363 -46.5869,-5.27363 -49.66584,0 -93.1034,17.14325 -116.77608,42.72738 l 0.0679,89.19474 c 6.19815,7.81952 11.81116,13.92455 16.83904,18.31509 4.46274,3.89703 10.08708,8.11123 20.02401,13.27439 z"/><path style="fill:#fff200;fill-opacity:1;fill-rule:evenodd;stroke:none;stroke-width:1" id="use94" d="m 1062.5025,123.97862 c -14.5296,-3.41194 -30.2201,-5.27363 -46.5869,-5.27363 -49.66584,0 -93.1034,17.14325 -116.77608,42.72738 l 0.0679,89.19474 c 6.19815,7.81952 11.81116,13.92455 16.83904,18.31509 4.46274,3.89703 10.08708,8.11123 20.02401,13.27439 z"/><path style="fill:#000;fill-opacity:1;fill-rule:evenodd;stroke:none;stroke-width:1;filter:url(#filter-4-4)" id="use97" d="m 936.07047,282.21659 c 22.02787,9.8224 50.80787,11.49008 79.67253,11.49008 35.1582,0 64.1,-3.57188 83.7796,-12.54366 13.1197,-5.98119 23.5863,-15.54298 31.3997,-28.68538 l 0.7339,-92.74177 c -15.9466,-16.46516 -40.5974,-29.05288 -69.4022,-35.80597 -18.3931,23.21517 -32.2543,40.66403 -41.5835,52.34658 -1.8174,2.27577 -3.7226,4.66154 -5.7156,7.15731 -12.4162,15.54817 -38.71102,48.47577 -78.88443,98.78281 z"/><path style="fill:#000;fill-opacity:1;fill-rule:evenodd;stroke:none;stroke-width:1;filter:url(#filter-6-3)" id="use103" d="m 1133.6607,258.70499 c 26.5678,0 49.1091,-23.96583 49.1091,-53.50842 0,-29.54258 -21.5375,-53.49158 -48.1054,-53.49158 z"/><path style="fill:#000;fill-opacity:1;fill-rule:evenodd;stroke:none;stroke-width:1" id="use105" d="m 1133.6607,258.70499 c 26.5678,0 49.1091,-23.96583 49.1091,-53.50842 0,-29.54258 -21.5375,-53.49158 -48.1054,-53.49158 z"/><path style="fill:#000;fill-opacity:1;fill-rule:evenodd;stroke:none;stroke-width:1;filter:url(#filter-8-9)" id="use109" d="m 56.124722,179 c 26.568709,0 48.106908,-23.95277 48.106908,-53.5 0,-29.547234 -21.538199,-53.5 -48.106908,-53.5" transform="matrix(-1,0,0,1,952.25756,79.704988)"/><path style="fill:#000;fill-opacity:1;fill-rule:evenodd;stroke:none;stroke-width:1" id="use111" d="m 896.13284,258.70499 c -26.56871,0 -48.10691,-23.95277 -48.10691,-53.5 0,-29.54724 21.5382,-53.5 48.10691,-53.5"/><path id="Path-Copy" d="m 981.92433,180.20499 c 0.0108,9.9545 -7.77208,20.2558 -18.14724,20.2558 -10.37517,1e-5 -21.69578,-10.3013 -21.70662,-20.2558 -0.0108,-9.95449 4.4136,-20.87997 17.60115,-19.5 13.18754,1.37998 22.24188,9.54551 22.25271,19.5 z" style="fill:#fff200;fill-opacity:1;fill-rule:evenodd;stroke:none;stroke-width:1"/><path id="Path-Copy-3" d="m 1087.0231,168.21439 c 8.1027,6.5652 1.4089,19.15918 -1.1771,22.9346 -2.586,3.77543 -9.9674,9.88143 -20.3388,6.50166 -10.3713,-3.37976 -9.647,-4.0394 -11.6264,-12.03795 -1.3196,-5.33237 -0.8514,-11.13181 1.4045,-17.39831 2.8032,-4.2171 7.209,-6.32563 13.2172,-6.32564 9.0125,0 10.418,-0.23957 18.5206,6.32564 z" style="fill:#284074;fill-rule:evenodd;stroke:none;stroke-width:1"/><polygon style="fill:#000;fill-opacity:1;fill-rule:evenodd;stroke:none;stroke-width:1;filter:url(#filter-10-7)" id="use116" points="220.49 429 359.8 383.178 359.8 247 220.49 293.626" transform="translate(791.90121,79.704988)"/><polygon style="fill:#fff200;fill-opacity:1;fill-rule:evenodd;stroke:none;stroke-width:1" id="use118" points="220.49 429 359.8 383.178 359.8 247 220.49 293.626" transform="translate(791.90121,79.704988)"/><polygon style="fill:#000;fill-opacity:1;fill-rule:evenodd;stroke:none;stroke-width:1;filter:url(#filter-12-1)" id="use121" points="220.809 429 84.086 383.075 83.185 247 220.809 293.587" transform="translate(791.90121,79.704988)"/><polygon style="fill:#fff200;fill-opacity:1;fill-rule:evenodd;stroke:none;stroke-width:1" id="use123" points="220.809 429 84.086 383.075 83.185 247 220.809 293.587" transform="translate(791.90121,79.704988)"/><polygon style="fill:#000;fill-opacity:1;fill-rule:evenodd;stroke:none;stroke-width:1;filter:url(#filter-14-5)" id="use126" points="220.49 294 83.185 247.166 220.232 200 359.8 247" transform="translate(791.90121,79.704988)"/><path style="fill:#000;fill-opacity:1;fill-rule:evenodd;stroke:none;stroke-width:1" id="use99" d="m 936.07047,282.21659 c 22.02787,9.8224 50.80787,11.49008 79.67253,11.49008 35.1582,0 64.1,-3.57188 83.7796,-12.54366 13.1197,-5.98119 23.5863,-15.54298 31.3997,-28.68538 l 0.7339,-92.74177 c -15.9466,-16.46516 -40.5974,-29.05288 -69.4022,-35.80597 -18.3931,23.21517 -32.2543,40.66403 -41.5835,52.34658 -1.8174,2.27577 -3.7226,4.66154 -5.7156,7.15731 -12.4162,15.54817 -38.71102,48.47577 -78.88443,98.78281 z"/><polygon style="fill:#fff200;fill-opacity:1;fill-rule:evenodd;stroke:none;stroke-width:1" id="use128" points="220.49 294 83.185 247.166 220.232 200 359.8 247" transform="translate(791.90121,79.704988)"/><path id="path131" d="m 974.27404,234.70499 h 117.32426 c 7.732,0 14,6.26801 14,14 v 4 c 0,7.73199 -6.268,14 -14,14 H 948.84678" style="fill:#fff200;fill-opacity:1;fill-rule:evenodd;stroke:none;stroke-width:1"/><path id="path133" d="m 948.65638,266.70499 h -5.45005 c -7.73198,0 -14,-6.26801 -14,-14 v -4 c 0,-7.73199 6.26802,-14 14,-14 h 30.85393 z" style="fill:#151516;fill-opacity:1;fill-rule:evenodd;stroke:none;stroke-width:1"/><path id="path135" d="m 978.35183,243.70499 h 111.68057 c 3.887,0 7.0381,3.35786 7.0381,7.5 0,4.14214 -3.1511,7.5 -7.0381,7.5 H 969.07047 Z" style="fill:#284074;fill-rule:evenodd;stroke:none;stroke-width:1"/><path id="path137" d="M 1091.8514,258.70499 H 944.27972 c -3.98156,0 -7.20925,-3.35786 -7.20925,-7.5 0,-4.14214 3.22769,-7.5 7.20925,-7.5 h 147.57168 c 3.4794,1.21444 5.2191,3.71444 5.2191,7.5 0,3.78556 -1.7397,6.28556 -5.2191,7.5 z" style="fill:#fffffd;fill-opacity:1;fill-rule:evenodd;stroke:none;stroke-width:1"/><path style="fill:#000;fill-opacity:1;fill-rule:evenodd;stroke:none;stroke-width:1;filter:url(#filter-16-1)" id="use139" d="m 873.10514,376.04646 2.16223,-0.083 c 0.20879,-0.008 0.38455,0.15475 0.39256,0.36354 0.004,0.0955 -0.029,0.18892 -0.0914,0.26137 -0.22853,0.2654 -0.19864,0.66582 0.0668,0.89435 0.0497,0.0428 0.1057,0.0776 0.16605,0.10321 l 28.66212,12.16377 c 4.06368,1.72456 6.70273,5.71141 6.70273,10.12588 v 22.57539 c 0,6.07513 -4.92486,11 -11,11 -0.94102,0 -1.87814,-0.12075 -2.78843,-0.35929 l -21.14417,-5.5409 c -1.67046,-0.43775 -3.18196,-1.34159 -4.35808,-2.60602 -1.1573,-1.2442 -1.80063,-2.88041 -1.80063,-4.57964 v -41.16993 c 0,-1.69326 1.33819,-3.0838 3.03021,-3.14874 z"/><path style="fill:#000;fill-opacity:1;fill-rule:evenodd;stroke:none;stroke-width:1;filter:url(#filter-18-3)" id="use145" d="m 328.45293,295.72889 1.82124,-0.35577 c 0.48639,-0.095 0.95771,0.22226 1.05273,0.70866 0.0409,0.20966 0.006,0.42705 -0.0992,0.61309 -0.46538,0.82456 -0.17421,1.87026 0.65035,2.33564 0.063,0.0355 0.12812,0.0671 0.19507,0.0944 l 9.92433,4.04869 v 0 l 16.97056,6.92325 c 4.13932,1.68866 6.84494,5.71454 6.84494,10.18506 v 20.99264 0 1.47147 c 0,6.07513 -4.92487,11 -11,11 -0.94102,0 -1.87815,-0.12075 -2.78843,-0.35929 l -21.14417,-5.5409 c -1.67046,-0.43775 -3.18196,-1.34159 -4.35808,-2.60602 -1.15731,-1.2442 -1.80064,-2.88041 -1.80064,-4.57964 v -40.40052 c 0,-2.20832 1.56397,-4.10736 3.73133,-4.53073 z" transform="matrix(-1,0,0,1,1482.4357,79.704988)"/><path id="Path-2" d="m 1151.7008,372.70499 c 0,2.62659 0,4.04524 0,4.25595 0,0.31607 -0.208,1.15284 -0.3615,1.40805 -0.1535,0.25522 -1.7099,0.60738 -2.2698,0 -0.3733,-0.40491 -0.4682,-1.62877 -0.2847,-3.67157 z" style="fill:#386cb5;fill-rule:evenodd;stroke:none;stroke-width:1"/><path id="Combined-Shape" d="m 1071.9012,156.70499 c 13.2548,0 24,10.74516 24,24 0,13.25483 -10.7452,24 -24,24 -13.2548,0 -24,-10.74517 -24,-24 0,-13.25484 10.7452,-24 24,-24 z m -0.5,3 c -11.3218,0 -20.5,9.17816 -20.5,20.5 0,11.32184 9.1782,20.5 20.5,20.5 11.3218,0 20.5,-9.17816 20.5,-20.5 0,-11.32184 -9.1782,-20.5 -20.5,-20.5 z" style="fill:#fff200;fill-opacity:1;fill-rule:evenodd;stroke:#fff200;stroke-width:6;stroke-opacity:1"/><path id="Combined-Shape-Copy" d="m 962.90121,156.70499 c 13.25483,0 24,10.74516 24,24 0,13.25483 -10.74517,24 -24,24 -13.25483,0 -24,-10.74517 -24,-24 0,-13.25484 10.74517,-24 24,-24 z m -0.5,4 c -11.32184,0 -20.5,9.17816 -20.5,20.5 0,11.32184 9.17816,20.5 20.5,20.5 11.32184,0 20.5,-9.17816 20.5,-20.5 0,-11.32184 -9.17816,-20.5 -20.5,-20.5 z" style="fill:#020202;fill-opacity:1;fill-rule:evenodd;stroke:#000;stroke-width:6;stroke-opacity:1"/><g style="fill:url(#pattern1771-6);fill-opacity:1" id="g2689" transform="translate(245.60883,108.30668)"><g style="fill:url(#pattern1771-6)" id="g10382"><g style="fill:url(#pattern1792)" id="g1776" transform="translate(-0.29994684,-0.0149013)"><polygon style="fill:url(#pattern1792);fill-opacity:1;fill-rule:evenodd;stroke:none;stroke-width:1" id="use2672" points="220.49 429 359.8 383.178 359.8 247 220.49 293.626" transform="translate(545.9738,-28.188218)"/><polygon style="fill:url(#pattern1792);fill-opacity:1;fill-rule:evenodd;stroke:none;stroke-width:1" id="use2674" points="220.809 429 84.086 383.075 83.185 247 220.809 293.587" transform="translate(545.9738,-28.188218)"/><polygon style="fill:url(#pattern1792);fill-opacity:1;fill-rule:evenodd;stroke:none;stroke-width:1" id="use2676" points="220.49 294 83.185 247.166 220.232 200 359.8 247" transform="translate(545.9738,-28.188218)"/></g></g></g><path style="fill:#000;fill-opacity:1;fill-rule:evenodd;stroke:none;stroke-width:1" id="use147" d="m 1153.9828,375.43388 -1.8212,-0.35577 c -0.4864,-0.095 -0.9578,0.22226 -1.0528,0.70866 -0.041,0.20966 -0.01,0.42705 0.099,0.61309 0.4654,0.82456 0.1742,1.87026 -0.6503,2.33564 -0.063,0.0355 -0.1281,0.0671 -0.1951,0.0944 l -9.9243,4.04869 v 0 l -16.9706,6.92325 c -4.1393,1.68866 -6.8449,5.71454 -6.8449,10.18506 v 20.99264 0 1.47147 c 0,6.07513 4.9248,11 11,11 0.941,0 1.8781,-0.12075 2.7884,-0.35929 l 21.1442,-5.5409 c 1.6704,-0.43775 3.1819,-1.34159 4.3581,-2.60602 1.1573,-1.2442 1.8006,-2.88041 1.8006,-4.57964 v -40.40052 c 0,-2.20832 -1.564,-4.10736 -3.7313,-4.53073 z"/><path style="fill:#000;fill-opacity:1;fill-rule:evenodd;stroke:none;stroke-width:1" id="use141" d="m 873.10514,376.04646 2.16223,-0.083 c 0.20879,-0.008 0.38455,0.15475 0.39256,0.36354 0.004,0.0955 -0.029,0.18892 -0.0914,0.26137 -0.22853,0.2654 -0.19864,0.66582 0.0668,0.89435 0.0497,0.0428 0.1057,0.0776 0.16605,0.10321 l 28.66212,12.16377 c 4.06368,1.72456 6.70273,5.71141 6.70273,10.12588 v 22.57539 c 0,6.07513 -4.92486,11 -11,11 -0.94102,0 -1.87814,-0.12075 -2.78843,-0.35929 l -21.14417,-5.5409 c -1.67046,-0.43775 -3.18196,-1.34159 -4.35808,-2.60602 -1.1573,-1.2442 -1.80063,-2.88041 -1.80063,-4.57964 v -41.16993 c 0,-1.69326 1.33819,-3.0838 3.03021,-3.14874 z"/></g></g></svg>